<svg
                width="25"
                height="25"
                xmlns="http://www.w3.org/2000/svg"
                viewBox="0 0 12 12"
              >
                <title>i-cart</title>
                <path d="M 10.4 10.4 l -0.6 -7 C 9.7 3.1 9.6 3 9.4 3 H 8.3 V 2.3 c 0 -0.6 -0.2 -1.2 -0.7 -1.6 C 7.2 0.2 6.6 0 6 0 C 4.8 0 3.8 1 3.8 2.3 V 3 H 2.6 C 2.4 3 2.3 3.1 2.3 3.3 l -0.6 7 C 1.5 11.2 2.1 11.9 3 12 c 0 0 0.1 0 0.1 0 h 5.8 c 0.8 0 1.5 -0.7 1.5 -1.5 C 10.4 10.5 10.4 10.4 10.4 10.4 L 10.4 10.4 Z M 4.5 2.3 c 0 -0.8 0.7 -1.5 1.5 -1.5 c 0.4 0 0.8 0.2 1.1 0.4 s 0.4 0.7 0.4 1.1 V 3 h -3 V 2.3 Z M 9.4 11 c -0.1 0.2 -0.3 0.2 -0.6 0.2 H 3.1 c -0.4 0 -0.7 -0.3 -0.7 -0.8 c 0 0 0 0 0 -0.1 L 3 3.8 h 0.8 v 1.1 c 0 0.2 0.2 0.4 0.4 0.4 c 0.2 0 0.4 -0.2 0.4 -0.4 V 3.8 h 3 v 1.1 c 0 0.2 0.2 0.4 0.4 0.4 s 0.4 -0.2 0.4 -0.4 V 3.8 H 9 l 0.6 6.7 C 9.7 10.6 9.6 10.9 9.4 11 L 9.4 11 Z"></path>
              </svg>